<svg version="1.1" id="Layer_1" xmlns="http://www.w3.org/2000/svg" xmlns:xlink="http://www.w3.org/1999/xlink" x="0px" y="0px"
	 width="100%" viewBox="0 0 512 512" enable-background="new 0 0 512 512" xml:space="preserve">
<path fill="#FFFFFF" opacity="1.000000" stroke="none" 
	d="
M513.000000,493.000000 
	C513.000000,499.661469 513.000000,506.322968 513.000000,512.957397 
	C342.333313,512.957397 171.666656,512.957397 1.000000,512.957397 
	C1.000000,503.921814 1.000000,494.928741 1.341036,485.545776 
	C5.882482,492.268433 11.889400,495.131592 20.345741,495.122192 
	C171.489792,494.954010 322.634064,495.000000 473.778290,495.000000 
	C475.690918,495.000000 477.603546,495.000000 479.873688,495.000000 
	C476.262726,488.378021 472.955322,482.161621 469.509888,476.022675 
	C459.364655,457.946228 449.125031,439.922699 438.998352,421.835876 
	C430.519043,406.691284 422.191956,391.461487 413.715302,376.315399 
	C403.513214,358.086304 393.214081,339.911530 382.976654,321.702148 
	C376.516205,310.210938 370.103516,298.692871 363.648621,287.198517 
	C353.104370,268.422241 342.567291,249.641876 331.976440,230.891876 
	C328.181580,224.173477 324.136078,217.595169 320.416290,210.836624 
	C318.943939,208.161530 318.168427,208.107773 316.646210,210.755249 
	C308.152740,225.527527 299.511719,240.215225 291.078552,255.021484 
	C290.315765,256.360748 289.942017,258.742889 290.618103,259.953735 
	C297.665863,272.576111 304.937897,285.073944 312.201447,297.575073 
	C325.122070,319.812317 337.951385,342.104065 351.061188,364.229462 
	C362.291656,383.183197 373.865723,401.933289 385.278381,420.779175 
	C389.493652,427.739960 393.681915,434.717072 398.071320,442.000000 
	C265.293060,442.000000 133.146530,442.000000 1.000000,442.000000 
	C1.000000,295.046967 1.000000,148.093903 1.000000,1.070432 
	C171.565186,1.070432 342.130402,1.070432 513.000000,1.070432 
	C513.000000,137.687943 513.000000,274.376129 512.638428,411.423981 
	C511.645813,410.138672 511.181885,408.404510 510.358765,406.862030 
	C498.100189,383.890594 485.870911,360.902924 473.478729,338.003510 
	C459.404205,311.995178 445.121490,286.099518 431.031464,260.099518 
	C422.916321,245.124878 415.083679,229.997223 406.981781,215.015289 
	C392.532471,188.295853 377.973785,161.635559 363.464020,134.948807 
	C348.646515,107.695938 333.839294,80.437492 318.995178,53.199146 
	C318.365753,52.044220 317.409424,51.067425 316.605408,50.007645 
	C315.523956,51.066120 314.123688,51.945370 313.411865,53.211628 
	C308.059021,62.733955 302.929382,72.381905 297.563049,81.896423 
	C287.773438,99.253296 277.804901,116.509323 268.031677,133.875336 
	C259.838196,148.434326 251.864441,163.116791 243.706818,177.696152 
	C233.508438,195.922836 223.211395,214.094284 212.976334,232.300476 
	C206.517319,243.789841 200.124969,255.316772 193.647125,266.795502 
	C183.458450,284.849701 173.217606,302.874420 163.009796,320.917816 
	C158.604568,328.704529 154.226639,336.506653 149.580704,344.755615 
	C169.407257,344.755615 188.594452,344.755615 207.569199,344.755615 
	C244.682465,280.244781 281.655762,215.977249 318.818329,151.380737 
	C320.177734,153.326370 321.203064,154.559280 321.975281,155.934326 
	C332.673828,174.985809 343.312805,194.070786 354.016632,213.119324 
	C365.982880,234.414474 378.022095,255.668610 389.989441,276.963135 
	C403.685791,301.334259 417.317719,325.741608 431.015289,350.112091 
	C444.321075,373.785522 457.699127,397.418335 471.000061,421.094452 
	C483.988617,444.214447 496.902252,467.376556 509.931976,490.473267 
	C510.539276,491.549805 511.958771,492.168213 513.000000,493.000000 
M151.453415,288.037781 
	C157.641846,276.955261 163.863510,265.891174 170.010162,254.785553 
	C177.483215,241.283386 184.835220,227.714035 192.343246,214.231461 
	C204.855072,191.763321 217.503586,169.371231 229.988953,146.888458 
	C237.790329,132.840240 245.293076,118.625954 253.115479,104.589653 
	C267.202545,79.312271 281.440979,54.119286 295.581512,28.871639 
	C297.271118,25.854845 298.745056,22.717283 300.642639,19.001974 
	C284.497772,19.001974 269.200409,18.791384 253.918839,19.188684 
	C251.038132,19.263578 247.305222,21.041384 245.550766,23.277285 
	C240.899582,29.204784 236.851105,35.658100 233.035934,42.178993 
	C220.537628,63.541119 208.302490,85.057014 195.865463,106.455254 
	C184.311234,126.334587 172.602173,146.123871 161.010452,165.981522 
	C153.392761,179.031265 145.878662,192.141434 138.288864,205.207535 
	C128.198929,222.577667 118.091972,239.937927 107.970551,257.289703 
	C100.354279,270.346710 92.694466,283.378326 85.071098,296.431213 
	C77.369469,309.618103 69.690773,322.818390 61.998501,336.010742 
	C54.306137,349.203278 46.597897,362.386536 38.917938,375.586273 
	C31.592583,388.176575 24.294739,400.782928 16.764765,413.761475 
	C127.412659,413.761475 237.593948,413.761475 347.941589,413.761475 
	C347.811401,413.046478 347.851562,412.511047 347.625641,412.135864 
	C339.995911,399.467163 332.424133,386.761475 324.565247,374.236053 
	C323.749481,372.935852 321.209290,372.099579 319.464783,372.092194 
	C289.299988,371.964172 259.134491,372.000000 228.969162,372.000000 
	C187.824249,372.000000 146.679352,372.000000 105.149078,372.000000 
	C110.746964,361.773468 116.180809,351.790802 121.666687,341.836884 
	C131.438171,324.106934 141.241135,306.394348 151.453415,288.037781 
z"/>
<path fill="#000000" opacity="1.000000" stroke="none" 
	d="
M1.000000,442.468658 
	C133.146530,442.000000 265.293060,442.000000 398.071320,442.000000 
	C393.681915,434.717072 389.493652,427.739960 385.278381,420.779175 
	C373.865723,401.933289 362.291656,383.183197 351.061188,364.229462 
	C337.951385,342.104065 325.122070,319.812317 312.201447,297.575073 
	C304.937897,285.073944 297.665863,272.576111 290.618103,259.953735 
	C289.942017,258.742889 290.315765,256.360748 291.078552,255.021484 
	C299.511719,240.215225 308.152740,225.527527 316.646210,210.755249 
	C318.168427,208.107773 318.943939,208.161530 320.416290,210.836624 
	C324.136078,217.595169 328.181580,224.173477 331.976440,230.891876 
	C342.567291,249.641876 353.104370,268.422241 363.648621,287.198517 
	C370.103516,298.692871 376.516205,310.210938 382.976654,321.702148 
	C393.214081,339.911530 403.513214,358.086304 413.715302,376.315399 
	C422.191956,391.461487 430.519043,406.691284 438.998352,421.835876 
	C449.125031,439.922699 459.364655,457.946228 469.509888,476.022675 
	C472.955322,482.161621 476.262726,488.378021 479.873688,495.000000 
	C477.603546,495.000000 475.690918,495.000000 473.778290,495.000000 
	C322.634064,495.000000 171.489792,494.954010 20.345741,495.122192 
	C11.889400,495.131592 5.882482,492.268433 1.341036,485.077942 
	C1.000000,470.979095 1.000000,456.958221 1.000000,442.468658 
z"/>
<path fill="#000000" opacity="1.000000" stroke="none" 
	d="
M513.000000,492.531342 
	C511.958771,492.168213 510.539276,491.549805 509.931976,490.473267 
	C496.902252,467.376556 483.988617,444.214447 471.000061,421.094452 
	C457.699127,397.418335 444.321075,373.785522 431.015289,350.112091 
	C417.317719,325.741608 403.685791,301.334259 389.989441,276.963135 
	C378.022095,255.668610 365.982880,234.414474 354.016632,213.119324 
	C343.312805,194.070786 332.673828,174.985809 321.975281,155.934326 
	C321.203064,154.559280 320.177734,153.326370 318.818329,151.380737 
	C281.655762,215.977249 244.682465,280.244781 207.569199,344.755615 
	C188.594452,344.755615 169.407257,344.755615 149.580704,344.755615 
	C154.226639,336.506653 158.604568,328.704529 163.009796,320.917816 
	C173.217606,302.874420 183.458450,284.849701 193.647125,266.795502 
	C200.124969,255.316772 206.517319,243.789841 212.976334,232.300476 
	C223.211395,214.094284 233.508438,195.922836 243.706818,177.696152 
	C251.864441,163.116791 259.838196,148.434326 268.031677,133.875336 
	C277.804901,116.509323 287.773438,99.253296 297.563049,81.896423 
	C302.929382,72.381905 308.059021,62.733955 313.411865,53.211628 
	C314.123688,51.945370 315.523956,51.066120 316.605408,50.007645 
	C317.409424,51.067425 318.365753,52.044220 318.995178,53.199146 
	C333.839294,80.437492 348.646515,107.695938 363.464020,134.948807 
	C377.973785,161.635559 392.532471,188.295853 406.981781,215.015289 
	C415.083679,229.997223 422.916321,245.124878 431.031464,260.099518 
	C445.121490,286.099518 459.404205,311.995178 473.478729,338.003510 
	C485.870911,360.902924 498.100189,383.890594 510.358765,406.862030 
	C511.181885,408.404510 511.645813,410.138672 512.638428,411.891846 
	C513.000000,438.687561 513.000000,465.375122 513.000000,492.531342 
z"/>
<path fill="#000000" opacity="1.000000" stroke="none" 
	d="
M151.242172,288.356140 
	C141.241135,306.394348 131.438171,324.106934 121.666687,341.836884 
	C116.180809,351.790802 110.746964,361.773468 105.149078,372.000000 
	C146.679352,372.000000 187.824249,372.000000 228.969162,372.000000 
	C259.134491,372.000000 289.299988,371.964172 319.464783,372.092194 
	C321.209290,372.099579 323.749481,372.935852 324.565247,374.236053 
	C332.424133,386.761475 339.995911,399.467163 347.625641,412.135864 
	C347.851562,412.511047 347.811401,413.046478 347.941589,413.761475 
	C237.593948,413.761475 127.412659,413.761475 16.764765,413.761475 
	C24.294739,400.782928 31.592583,388.176575 38.917938,375.586273 
	C46.597897,362.386536 54.306137,349.203278 61.998501,336.010742 
	C69.690773,322.818390 77.369469,309.618103 85.071098,296.431213 
	C92.694466,283.378326 100.354279,270.346710 107.970551,257.289703 
	C118.091972,239.937927 128.198929,222.577667 138.288864,205.207535 
	C145.878662,192.141434 153.392761,179.031265 161.010452,165.981522 
	C172.602173,146.123871 184.311234,126.334587 195.865463,106.455254 
	C208.302490,85.057014 220.537628,63.541119 233.035934,42.178993 
	C236.851105,35.658100 240.899582,29.204784 245.550766,23.277285 
	C247.305222,21.041384 251.038132,19.263578 253.918839,19.188684 
	C269.200409,18.791384 284.497772,19.001974 300.642639,19.001974 
	C298.745056,22.717283 297.271118,25.854845 295.581512,28.871639 
	C281.440979,54.119286 267.202545,79.312271 253.115479,104.589653 
	C245.293076,118.625954 237.790329,132.840240 229.988953,146.888458 
	C217.503586,169.371231 204.855072,191.763321 192.343246,214.231461 
	C184.835220,227.714035 177.483215,241.283386 170.010162,254.785553 
	C163.863510,265.891174 157.641846,276.955261 151.242172,288.356140 
z"/>
</svg>